General
Complete name                    : Sentinel.mkv
Format                           : Matroska
File size                        : 948 MiB
Duration                         : 1h 48mn
Overall bit rate                 : 1 228 Kbps


Video
ID                               : 1
Format                           : AVC
Duration                         : 1h 47mn
Bit rate                         : 755 Kbps
Width                            : 720 pixels
Height                           : 354 pixels
Display aspect ratio             : 2.40:1
Frame rate                       : 23.976 fps
Resolution                       : 8 bits
Colorimetry                      : 4:2:0
Scan type                        : Progressive
Bits/(Pixel*Frame)               : 0.124
Stream size                      : 583 MiB (61%)
Writing library                  : x264 core 79


Audio
ID                               : 2
Format                           : AC-3
Format/Info                      : Audio Coding 3
Codec ID                         : A_AC3
Duration                         : 1h 48mn
Bit rate mode                    : Constant
Bit rate                         : 448 Kbps
Channel(s)                       : 6 channels
Channel positions                : Front: L C R, Surround: L R, LFE
Sampling rate                    : 48.0 KHz
Stream size                      : 346 MiB (36%)
Language                         : English

Text #1
Language                         : English

Text #2
Language                         : Swedish



